<!-- Generated by IcoMoon.io -->
<svg version="1.1" xmlns="http://www.w3.org/2000/svg" width="32" height="32" viewBox="0 0 32 32">
<title>coronavirus</title>
<path fill="#c3c3c3" d="M28.333 14c-0.547 0-1 0.453-1 1h-2.053c-0.2-1.827-0.92-3.507-2.027-4.867l1.453-1.453 0.013 0.013c0.387 0.387 1.027 0.387 1.413 0s0.387-1.027 0-1.413l-1.413-1.413c-0.387-0.387-1.027-0.387-1.413 0s-0.387 1.013-0.013 1.4l-1.453 1.453c-1.36-1.093-3.027-1.813-4.853-2.013v-2.040h0.013c0.547 0 1-0.453 1-1s-0.453-1-1-1h-2c-0.547 0-1 0.453-1 1s0.44 0.987 0.987 1v2.067c-1.827 0.187-3.493 0.92-4.853 2.013l-1.453-1.453 0.013-0.013c0.387-0.387 0.387-1.027 0-1.413s-1.027-0.387-1.413 0l-1.413 1.413c-0.387 0.387-0.387 1.027 0 1.413s1.013 0.387 1.4 0.013l1.453 1.453c-1.093 1.36-1.813 3.013-2 4.84h-2.053c0-0.547-0.453-1-1-1s-1 0.453-1 1v2c0 0.547 0.453 1 1 1s1-0.453 1-1h2.053c0.2 1.827 0.92 3.48 2 4.84l-1.453 1.453c-0.387-0.387-1.013-0.373-1.4 0.013s-0.387 1.027 0 1.413l1.413 1.413c0.387 0.387 1.027 0.387 1.413 0s0.387-1.027 0-1.413l-0.013-0.013 1.453-1.453c1.36 1.093 3.013 1.813 4.84 2.013v2.067c-0.547 0.013-0.987 0.453-0.987 1s0.453 1 1 1h2c0.547 0 1-0.453 1-1s-0.453-1-1-1h-0.013v-2.053c1.827-0.187 3.493-0.92 4.853-2.013l1.453 1.453c-0.387 0.387-0.373 1.013 0.013 1.4s1.027 0.387 1.413 0l1.413-1.413c0.387-0.387 0.387-1.027 0-1.413s-1.027-0.387-1.413 0l-0.013 0.013-1.453-1.453c1.093-1.36 1.827-3.027 2.027-4.867h2.053c0 0.547 0.453 1 1 1s1-0.453 1-1v-2c0.013-0.533-0.44-0.987-0.987-0.987zM18.333 10.667c0.733 0 1.333 0.6 1.333 1.333s-0.6 1.333-1.333 1.333-1.333-0.6-1.333-1.333 0.6-1.333 1.333-1.333zM16 17.333c-0.733 0-1.333-0.6-1.333-1.333s0.6-1.333 1.333-1.333 1.333 0.6 1.333 1.333c0 0.733-0.6 1.333-1.333 1.333zM13.667 10.667c0.733 0 1.333 0.6 1.333 1.333s-0.6 1.333-1.333 1.333-1.333-0.6-1.333-1.333 0.6-1.333 1.333-1.333zM11.333 17.333c-0.733 0-1.333-0.6-1.333-1.333s0.6-1.333 1.333-1.333 1.333 0.6 1.333 1.333c0 0.733-0.6 1.333-1.333 1.333zM13.667 21.333c-0.733 0-1.333-0.6-1.333-1.333s0.6-1.333 1.333-1.333 1.333 0.6 1.333 1.333c0 0.733-0.6 1.333-1.333 1.333zM18.333 21.333c-0.733 0-1.333-0.6-1.333-1.333s0.6-1.333 1.333-1.333 1.333 0.6 1.333 1.333c0 0.733-0.6 1.333-1.333 1.333zM19.333 16c0-0.733 0.6-1.333 1.333-1.333s1.333 0.6 1.333 1.333c0 0.733-0.6 1.333-1.333 1.333s-1.333-0.6-1.333-1.333z"></path>
</svg>
