<!-- Generated by IcoMoon.io -->
<svg version="1.1" xmlns="http://www.w3.org/2000/svg" width="32" height="32" viewBox="0 0 32 32">
<title>hand</title>
<path fill="#c3c3c3" d="M24.022 15.028h-0.16c-0.358 0-0.697 0.080-1.002 0.224-0.221-1.070-1.171-1.878-2.305-1.878h-0.16c-0.409 0-0.793 0.105-1.129 0.289-0.352-0.857-1.196-1.462-2.178-1.462h-0.16c-0.339 0-0.662 0.072-0.954 0.202v-3.422c0-1.298-1.056-2.354-2.354-2.354h-0.16c-1.298 0-2.354 1.056-2.354 2.354v8.716l-1.086 0.824c-0.855 0.649-1.398 1.594-1.527 2.66s0.172 2.113 0.847 2.948l3.37 4.166v1.661c0 0.992 0.807 1.799 1.799 1.799h8.402c0.992 0 1.799-0.807 1.799-1.799l0-1.576c1.076-1.349 1.665-3.025 1.665-4.747v-6.251c0-1.298-1.056-2.354-2.354-2.354zM24.976 23.632c0 1.477-0.532 2.911-1.497 4.040-0.109 0.127-0.168 0.288-0.168 0.455v1.829c0 0.22-0.179 0.399-0.399 0.399h-8.402c-0.22 0-0.399-0.179-0.399-0.399v-1.909c0-0.16-0.055-0.316-0.156-0.44l-3.525-4.358c-0.435-0.538-0.629-1.212-0.545-1.899s0.432-1.295 0.983-1.713l0.239-0.181v2.008c0 0.387 0.314 0.7 0.7 0.7s0.7-0.314 0.7-0.7v-3.411c0-0.005 0-0.010 0-0.015v-9.056c0-0.525 0.427-0.953 0.953-0.953h0.16c0.525 0 0.953 0.428 0.953 0.953v5.574c0 0 0 0 0 0s0 0 0 0l0.004 4.636c0 0.387 0.314 0.7 0.7 0.7 0 0 0 0 0 0 0.386-0 0.7-0.314 0.7-0.701l-0.004-4.635c0-0.525 0.428-0.953 0.954-0.953h0.16c0.526 0 0.953 0.428 0.953 0.953v1.174c0 0 0 0 0 0s0 0 0 0l0.003 3.462c0 0.387 0.314 0.7 0.7 0.7 0 0 0 0 0.001 0 0.387-0 0.7-0.314 0.7-0.701l-0.003-3.462c0-0.525 0.428-0.953 0.953-0.953h0.16c0.526 0 0.954 0.428 0.954 0.953v1.469c-0.002 0.023-0.007 0.046-0.007 0.069l0.003 1.926c0.001 0.387 0.314 0.699 0.7 0.699 0 0 0.001 0 0.001 0 0.387-0.001 0.7-0.315 0.699-0.702l-0.003-1.743c0.002-0.022 0.007-0.042 0.007-0.064 0-0.526 0.428-0.953 0.953-0.953h0.16c0.526 0 0.954 0.427 0.954 0.953v6.25z"></path>
<path fill="#c3c3c3" d="M9.006 11.283c-0.183 0-0.366-0.071-0.503-0.214-0.309-0.32-0.552-0.594-0.743-0.838-2.339-2.994-2.805-6.559-1.107-8.477 0.82-0.926 1.971-1.461 3.24-1.505 1.259-0.041 2.518 0.408 3.598 1.281 1.080-0.874 2.347-1.325 3.598-1.281 1.269 0.044 2.42 0.578 3.24 1.505 1.698 1.918 1.232 5.484-1.107 8.477-0.191 0.245-0.441 0.527-0.742 0.839-0.269 0.278-0.713 0.285-0.99 0.017-0.278-0.269-0.286-0.712-0.017-0.99 0.267-0.277 0.485-0.522 0.646-0.728 1.892-2.422 2.392-5.297 1.162-6.687-0.563-0.636-1.358-1.003-2.239-1.034-1.072-0.037-2.156 0.431-3.058 1.318-0.272 0.268-0.709 0.268-0.982 0-0.902-0.887-1.991-1.358-3.058-1.318-0.882 0.030-1.677 0.397-2.24 1.034-1.23 1.39-0.731 4.265 1.162 6.687 0.159 0.203 0.376 0.448 0.647 0.728 0.269 0.278 0.261 0.722-0.017 0.99-0.136 0.131-0.311 0.196-0.486 0.196z"></path>
</svg>
