<!-- Generated by IcoMoon.io -->
<svg version="1.1" xmlns="http://www.w3.org/2000/svg" width="32" height="32" viewBox="0 0 32 32">
<title>massage</title>
<path fill="#c3c3c3" d="M30.829 26.667h-10.862v2.667h10.927c0.26 0 0.488-0.065 0.683-0.195s0.314-0.26 0.358-0.39l0.065-0.195v-0.65c0-0.087-0.011-0.206-0.033-0.358s-0.13-0.336-0.325-0.553-0.466-0.325-0.813-0.325z"></path>
<path fill="#c3c3c3" d="M29.333 26.146c0.737 0 1.366-0.26 1.886-0.78s0.78-1.16 0.78-1.919-0.26-1.398-0.78-1.919-1.149-0.78-1.886-0.78-1.366 0.26-1.886 0.78-0.78 1.16-0.78 1.919 0.26 1.398 0.78 1.919 1.149 0.78 1.886 0.78z"></path>
<path fill="#c3c3c3" d="M23.675 26.016c0.694 0 1.29-0.228 1.789-0.683s0.748-1.030 0.748-1.724-0.238-1.225-0.715-1.593-1.084-0.553-1.821-0.553l-3.707 0.455v4.098h3.707z"></path>
<path fill="#c3c3c3" d="M11.707 8.65c0.824 0 1.518-0.293 2.081-0.878s0.846-1.29 0.846-2.114-0.282-1.528-0.846-2.114-1.257-0.878-2.081-0.878-1.528 0.293-2.114 0.878-0.878 1.29-0.878 2.114 0.293 1.528 0.878 2.114 1.29 0.878 2.114 0.878z"></path>
<path fill="#c3c3c3" d="M8.65 18.276v-0.065l-1.366-3.122v6.244h4.033l0.846-0.911-2.341-0.911c-0.564-0.217-0.954-0.629-1.171-1.236z"></path>
<path fill="#c3c3c3" d="M9.496 17.951c0.13 0.347 0.369 0.564 0.715 0.65l4.553 1.691c0.304 0.13 0.607 0.141 0.911 0.033s0.509-0.314 0.618-0.618c0.108-0.304 0.108-0.607 0-0.911s-0.314-0.52-0.618-0.65l-4.228-1.561-1.301-3.122 0.846-0.325 1.106 2.667 3.252 1.171v-3.252l1.691 1.041 0.846 4.228c0.087 0.304 0.282 0.531 0.585 0.683s0.607 0.174 0.911 0.065c0.304-0.108 0.52-0.304 0.65-0.585s0.152-0.575 0.065-0.878l-0.976-4.163c-0.043-0.217-0.173-0.412-0.39-0.585-0.087-0.13-0.39-0.477-0.911-1.041s-1.008-1.095-1.463-1.594-0.705-0.77-0.748-0.813c-0.477-0.477-1.127-0.715-1.951-0.715h-3.967c-1.041 0-1.745 0.401-2.114 1.203s-0.423 1.55-0.163 2.244l2.081 5.138z"></path>
<path fill="#c3c3c3" d="M19.317 21.984h-18.016c-0.347 0-0.65 0.108-0.911 0.325s-0.39 0.499-0.39 0.846v6.179h19.317v-7.35z"></path>
</svg>
