<!-- Generated by IcoMoon.io -->
<svg version="1.1" xmlns="http://www.w3.org/2000/svg" width="32" height="32" viewBox="0 0 32 32">
<title>spine2</title>
<path d="M24.377 2.728h-1.397v-1.635c0-0.383-0.195-0.731-0.52-0.931-0.321-0.198-0.73-0.216-1.067-0.045-1.045 0.528-3.162 0.869-5.392 0.869s-4.348-0.341-5.393-0.869c-0.336-0.17-0.745-0.153-1.067 0.045-0.326 0.201-0.52 0.549-0.52 0.932v1.635h-1.397c-0.986 0-1.788 0.802-1.788 1.788v1.243c0 0.986 0.802 1.788 1.788 1.788h1.397v0.816c0 0.648 0.379 1.244 0.964 1.52 1.977 0.93 5.358 0.977 6.015 0.977 1.9 0 4.477-0.257 6.013-0.977 0.587-0.275 0.967-0.872 0.967-1.521v-0.816h1.397c0.986 0 1.788-0.802 1.788-1.788v-1.243c-0-0.986-0.802-1.788-1.788-1.788zM24.457 5.759c0 0.044-0.036 0.080-0.079 0.080h-2.252c-0.472 0-0.854 0.382-0.854 0.854v1.652c-1.287 0.596-3.641 0.808-5.271 0.808-1.634 0-3.99-0.212-5.271-0.807v-1.652c0-0.472-0.382-0.854-0.854-0.854h-2.252c-0.044 0-0.080-0.036-0.080-0.080v-1.243c0-0.044 0.036-0.080 0.080-0.080h2.252c0.472 0 0.854-0.382 0.854-0.854v-1.58c1.34 0.439 3.225 0.691 5.271 0.691s3.931-0.252 5.271-0.691v1.58c0 0.472 0.382 0.854 0.854 0.854h2.252c0.044 0 0.079 0.036 0.079 0.080v1.243z"></path>
<path d="M24.16 13.277h-1.18v-1.635c0-0.377-0.199-0.734-0.52-0.931-0.321-0.198-0.73-0.216-1.067-0.045-1.045 0.528-3.162 0.869-5.392 0.869s-4.348-0.341-5.393-0.869c-0.337-0.17-0.746-0.153-1.066 0.045-0.321 0.197-0.521 0.555-0.521 0.932v1.635h-1.181c-1.106 0-2.005 0.899-2.005 2.005v0.809c0 1.106 0.899 2.005 2.005 2.005h1.18v0.816c0 0.648 0.379 1.244 0.964 1.52 1.977 0.93 5.358 0.977 6.015 0.977 1.9 0 4.477-0.257 6.013-0.977 0.587-0.275 0.967-0.872 0.967-1.521v-0.816h1.18c1.106 0 2.005-0.899 2.005-2.005v-0.809c0-1.106-0.899-2.005-2.005-2.005zM24.457 16.091c0 0.163-0.133 0.297-0.297 0.297h-2.035c-0.472 0-0.854 0.382-0.854 0.854v1.652c-1.287 0.596-3.641 0.808-5.271 0.808-1.634 0-3.99-0.212-5.271-0.807v-1.652c0-0.472-0.382-0.854-0.854-0.854h-2.035c-0.164 0-0.297-0.133-0.297-0.297v-0.809c0-0.164 0.133-0.297 0.297-0.297h2.035c0.472 0 0.854-0.382 0.854-0.854v-1.58c1.34 0.439 3.225 0.691 5.271 0.691s3.931-0.252 5.271-0.691v1.58c0 0.472 0.382 0.854 0.854 0.854h2.035c0.164 0 0.297 0.133 0.297 0.297v0.809z"></path>
<path d="M12.368 3.072c-0.472 0-0.854 0.382-0.854 0.854v3.284c0 0.472 0.382 0.854 0.854 0.854s0.854-0.382 0.854-0.854v-3.284c0-0.472-0.382-0.854-0.854-0.854z"></path>
<path d="M12.368 13.703c-0.472 0-0.854 0.382-0.854 0.854v3.17c0 0.472 0.382 0.854 0.854 0.854s0.854-0.382 0.854-0.854v-3.17c0-0.472-0.382-0.854-0.854-0.854z"></path>
<path d="M24.16 23.867h-1.18v-1.635c0-0.377-0.199-0.734-0.521-0.932s-0.73-0.215-1.067-0.045c-1.045 0.528-3.162 0.869-5.392 0.869s-4.348-0.341-5.393-0.869c-0.337-0.17-0.746-0.153-1.066 0.045-0.321 0.197-0.521 0.555-0.521 0.932v1.635h-1.181c-1.106 0-2.005 0.899-2.005 2.005v0.809c0 1.106 0.899 2.005 2.005 2.005h1.18v0.816c0 0.647 0.378 1.244 0.964 1.52 1.977 0.93 5.357 0.977 6.015 0.977 1.9 0 4.477-0.257 6.013-0.977 0.587-0.275 0.967-0.872 0.967-1.521v-0.815h1.18c1.106 0 2.005-0.899 2.005-2.005v-0.809c0-1.106-0.899-2.005-2.005-2.005zM24.457 26.681c0 0.164-0.133 0.297-0.297 0.297h-2.035c-0.472 0-0.854 0.382-0.854 0.854v1.652c-1.287 0.596-3.641 0.808-5.271 0.808-1.634 0-3.99-0.212-5.271-0.807v-1.652c0-0.472-0.382-0.854-0.854-0.854h-2.035c-0.164 0-0.297-0.133-0.297-0.297v-0.809c0-0.164 0.133-0.297 0.297-0.297h2.035c0.472 0 0.854-0.382 0.854-0.854v-1.58c1.34 0.439 3.225 0.691 5.271 0.691s3.931-0.252 5.271-0.691v1.58c0 0.472 0.382 0.854 0.854 0.854h2.035c0.164 0 0.297 0.133 0.297 0.297v0.809z"></path>
<path d="M12.368 24.293c-0.472 0-0.854 0.382-0.854 0.854v3.171c0 0.472 0.382 0.854 0.854 0.854s0.854-0.382 0.854-0.854v-3.171c0-0.472-0.382-0.854-0.854-0.854z"></path>
</svg>
