<?xml version="1.0" encoding="utf-8"?>
<!-- Generator: Adobe Illustrator 24.3.0, SVG Export Plug-In . SVG Version: 6.00 Build 0)  -->
<svg version="1.1" xmlns="http://www.w3.org/2000/svg" xmlns:xlink="http://www.w3.org/1999/xlink" x="0px" y="0px"
	 viewBox="0 0 980 340" style="enable-background:new 0 0 980 340;" xml:space="preserve">
<style type="text/css">
	.st0{fill:#151515;}
	.st1{fill:#AD8330;}
</style>
<g id="BG">
	<g>
		<rect class="st0" width="980" height="340"/>
	</g>
</g>
<g id="Слой_1">
	<g>
		<path class="st1" d="M38.7,145.8h-11v-133h4.9l58.5,86l58-86h5v133h-11V40l-50.8,75.2h-2.7L38.7,40.2V145.8z"/>
		<path class="st1" d="M270.1,68.1V49.5h10.4v96.3h-10.4v-18.7c-4.1,6.6-9.5,11.8-16.1,15.5c-6.7,3.7-14,5.6-21.9,5.6
			c-13.6,0-25-4.9-34.2-14.6c-9.1-9.8-13.7-22-13.7-36.4c0-14.2,4.5-26,13.5-35.6c9.2-9.6,20.7-14.4,34.4-14.4c8,0,15.4,1.8,22,5.5
			C260.7,56.4,266.1,61.5,270.1,68.1z M232.7,138.3c11.2,0,20.3-4,27.5-11.9c7.2-7.9,10.8-17.6,10.8-29.2c0-11.2-3.6-20.6-10.8-28.4
			c-7.2-7.8-16.4-11.7-27.5-11.7c-11,0-20.1,3.9-27.2,11.7c-7,7.7-10.4,17.3-10.4,28.8c0,11.6,3.5,21.3,10.4,29
			C212.6,134.4,221.7,138.3,232.7,138.3z"/>
		<path class="st1" d="M339.3,148c-7.3,0-14-1.8-20-5.3c-6-3.5-10.7-8.8-14-15.8l8.6-5.4c5.6,11.2,14.1,16.7,25.4,16.7
			c6.4,0,11.6-1.8,15.8-5.3c4.1-3.5,6.2-7.8,6.2-12.9c0-6.2-4.1-11.5-12.2-15.7c-2.4-1.2-6.2-2.8-11.5-4.9c-6.1-2.5-10-4.3-11.5-5.2
			c-10.2-5.2-15.3-12.7-15.3-22.5c0-7.4,2.7-13.6,8.1-18.4c5.4-4.8,12.5-7.2,21.4-7.2c13.2,0,22.9,5,29,15.1l-7.6,6.1
			c-4.6-7.8-11.8-11.7-21.6-11.7c-5.9,0-10.5,1.4-13.9,4.3c-3.4,2.9-5,6.7-5,11.3c0,6.4,3.5,11.2,10.4,14.6l10.8,4.7
			c6.7,2.8,11,4.6,12.8,5.6c11.3,5.4,16.9,13.1,16.9,23c0,8-3.1,14.8-9.2,20.3C356.8,145.2,349,148,339.3,148z"/>
		<path class="st1" d="M423.1,148c-7.3,0-14-1.8-20-5.3c-6-3.5-10.7-8.8-14-15.8l8.6-5.4c5.6,11.2,14.1,16.7,25.4,16.7
			c6.4,0,11.6-1.8,15.8-5.3c4.1-3.5,6.2-7.8,6.2-12.9c0-6.2-4.1-11.5-12.2-15.7c-2.4-1.2-6.2-2.8-11.5-4.9c-6.1-2.5-10-4.3-11.5-5.2
			c-10.2-5.2-15.3-12.7-15.3-22.5c0-7.4,2.7-13.6,8.1-18.4c5.4-4.8,12.5-7.2,21.4-7.2c13.2,0,22.9,5,29,15.1l-7.6,6.1
			c-4.6-7.8-11.8-11.7-21.6-11.7c-5.9,0-10.5,1.4-13.9,4.3c-3.4,2.9-5,6.7-5,11.3c0,6.4,3.5,11.2,10.4,14.6l10.8,4.7
			c6.7,2.8,11,4.6,12.8,5.6c11.3,5.4,16.9,13.1,16.9,23c0,8-3.1,14.8-9.2,20.3C440.7,145.2,432.9,148,423.1,148z"/>
		<path class="st1" d="M561.4,68.1V49.5h10.4v96.3h-10.4v-18.7c-4.1,6.6-9.5,11.8-16.1,15.5c-6.7,3.7-13.9,5.6-21.9,5.6
			c-13.6,0-25-4.9-34.2-14.6c-9.1-9.8-13.7-22-13.7-36.4c0-14.2,4.5-26,13.5-35.6c9.2-9.6,20.7-14.4,34.4-14.4c8,0,15.4,1.8,22,5.5
			C552,56.4,557.3,61.5,561.4,68.1z M523.9,138.3c11.2,0,20.3-4,27.5-11.9s10.8-17.6,10.8-29.2c0-11.2-3.6-20.6-10.8-28.4
			c-7.2-7.8-16.4-11.7-27.5-11.7c-11,0-20.1,3.9-27.2,11.7c-7,7.7-10.4,17.3-10.4,28.8c0,11.6,3.5,21.3,10.4,29
			C503.8,134.4,512.9,138.3,523.9,138.3z"/>
		<path class="st1" d="M684.9,66.8V49.5h10.8v87.8c0,15.2-4.5,27.2-13.5,36c-8.9,8.9-21,13.3-36.4,13.3c-15.2,0-29-4.6-41.4-13.7
			l5.6-8.6c11,8.3,23,12.4,36,12.4c12,0,21.5-3.5,28.4-10.4c7-6.9,10.4-16.2,10.4-28V126c-4.1,6.4-9.4,11.3-16,14.8
			c-6.6,3.5-13.9,5.3-21.8,5.3c-13.8,0-25.3-4.7-34.4-14.2c-9.1-9.5-13.7-21.2-13.7-35.3c0-13.8,4.6-25.5,13.9-35.1
			c9.2-9.6,20.7-14.4,34.4-14.4c7.9,0,15.1,1.7,21.7,5.1C675.5,55.8,680.8,60.6,684.9,66.8z M647.4,136.3c11,0,20.2-3.8,27.4-11.5
			c7.3-7.7,11-17.2,11-28.4c0-11.2-3.7-20.5-11-27.9c-7.2-7.6-16.3-11.3-27.4-11.3c-11,0-20,3.8-27,11.3
			c-7.1,7.7-10.6,17.1-10.6,28.3c0,11.2,3.5,20.6,10.6,28.3C627.4,132.5,636.4,136.3,647.4,136.3z"/>
		<path class="st1" d="M815.5,93.5c0,1.3-0.2,4.1-0.5,8.5h-81c0.8,10.9,4.7,19.7,11.5,26.2c6.8,6.5,16,9.8,27.5,9.8
			c6.2,0,12.6-1,19.1-3.1c6.5-2.1,11.9-4.9,16.2-8.4l5,8.3c-4.9,3.8-11,7-18.3,9.5c-7.3,2.5-14.7,3.8-22.2,3.8
			c-16.6,0-29-5-37.4-14.9c-8.4-9.9-12.6-21.8-12.6-35.7c0-14.5,4.4-26.5,13.1-36c8.8-9.5,20.3-14.2,34.7-14.2
			c13,0,23.6,4.2,32,12.6C811.3,68.1,815.5,79.3,815.5,93.5z M770.7,57.1c-10.1,0-18.5,3.2-25.1,9.5C738.9,73,735.1,81.5,734,92
			h70.4c-0.1-10.6-3.3-19-9.5-25.4C788.7,60.3,780.7,57.1,770.7,57.1z"/>
	</g>
	<g>
		<path class="st1" d="M70.6,291.2V168.9H30.3v-10.6h91.6v10.6H81.6v122.4H70.6z"/>
		<path class="st1" d="M154.3,291.2h-10.8V155.4H154v55.8c2.9-6,7.2-10.6,13-13.9c5.8-3.2,12.6-4.9,20.2-4.9
			c10.8,0,19.9,3.5,27.2,10.6c7.3,7,11,17,11,30.1v58.1h-10.8v-56.3c0-10.1-2.6-18-7.7-23.8c-5.1-5.8-12.1-8.6-21-8.6
			c-8.5,0-15.9,2.9-22.1,8.6c-6.4,5.8-9.5,14.4-9.5,25.9V291.2z"/>
		<path class="st1" d="M344.2,238.9c0,1.3-0.2,4.1-0.5,8.5h-81c0.8,10.9,4.7,19.7,11.5,26.2c6.8,6.5,16,9.8,27.5,9.8
			c6.2,0,12.6-1,19.1-3.2c6.5-2.1,11.9-4.9,16.2-8.4l5,8.3c-4.9,3.8-11,7-18.3,9.5c-7.3,2.5-14.7,3.8-22.2,3.8
			c-16.6,0-29-5-37.4-14.8c-8.4-9.9-12.6-21.8-12.6-35.7c0-14.5,4.4-26.5,13.1-36c8.8-9.5,20.3-14.2,34.7-14.2
			c13,0,23.6,4.2,32,12.6C340,213.5,344.2,224.7,344.2,238.9z M299.4,202.5c-10.1,0-18.5,3.2-25.1,9.5c-6.7,6.4-10.5,14.8-11.6,25.4
			h70.4c-0.1-10.6-3.3-19-9.4-25.4C317.4,205.7,309.4,202.5,299.4,202.5z"/>
		<path class="st1" d="M381.7,291.2h-10.8V195h10.3v15.5c5.2-12,14.5-18,27.9-18c3.7,0,7.7,0.5,11.9,1.6l-1.3,10.3
			c-3.4-1.1-6.8-1.6-10.3-1.6c-8.6,0-15.4,3.1-20.3,9.3c-4.9,6.2-7.4,14.3-7.4,24.4V291.2z"/>
		<path class="st1" d="M514.3,213.5V195h10.4v96.3h-10.4v-18.7c-4.1,6.6-9.4,11.8-16.1,15.5c-6.7,3.7-14,5.6-21.9,5.6
			c-13.6,0-25-4.9-34.2-14.6c-9.1-9.8-13.7-22-13.7-36.4c0-14.2,4.5-26,13.5-35.6c9.2-9.6,20.7-14.4,34.4-14.4c8,0,15.4,1.8,22,5.5
			C504.9,201.8,510.2,206.9,514.3,213.5z M476.9,283.7c11.2,0,20.3-4,27.5-11.9s10.8-17.6,10.8-29.2c0-11.2-3.6-20.6-10.8-28.4
			c-7.2-7.8-16.4-11.7-27.5-11.7c-11,0-20.1,3.9-27.2,11.7c-7,7.7-10.4,17.3-10.4,28.8c0,11.6,3.5,21.3,10.4,29
			C456.8,279.8,465.8,283.7,476.9,283.7z"/>
		<path class="st1" d="M607.7,192.4c13.7,0,25.1,4.9,34.2,14.8c9.1,9.6,13.7,21.5,13.7,35.8c0,14.3-4.6,26.2-13.7,35.8
			c-9.1,9.7-20.5,14.6-34.2,14.6c-8.3,0-15.8-1.9-22.4-5.6s-12-9-16.1-15.8v58.9h-10.8V195h10.8v19.6c4.1-7,9.5-12.4,16.2-16.3
			C592.1,194.4,599.6,192.4,607.7,192.4z M607.2,283.5c10.9,0,19.9-3.9,27-11.7c7.1-7.8,10.6-17.4,10.6-28.8
			c0-11.4-3.5-21-10.6-28.8c-7.1-7.8-16.1-11.7-27-11.7c-11.2,0-20.3,4-27.5,11.9c-7.2,7.9-10.8,17.6-10.8,29
			c0,11.3,3.6,20.8,10.8,28.4C586.9,279.6,596,283.5,607.2,283.5z"/>
		<path class="st1" d="M714.3,277.2l31.5-82.3h11.9L717,298.5c-4.8,12.2-9.7,20.9-14.6,26c-4.9,5.1-11,7.6-18.4,7.6
			c-5.2,0-9.8-1.1-13.9-3.4l1.6-9.5c4.2,1.9,8.2,2.9,11.9,2.9c4.9,0,9.2-2,12.8-6c3.6-4,7-10.2,10.3-18.6l2.3-6.1L668,195h11.9
			L714.3,277.2z"/>
	</g>
	<path class="st1" d="M937.9,197.5c-5,7.7-10.4,15-16.2,22c-10.6-16-21.2-32.1-29.8-49c6.8-7.9,13.3-16.2,18.9-25
		c15.1-23.6,31.1-74.1-8.1-84.8c-17.2-4.7-35.1,4.8-43.9,19.6c-11,18.3-10.2,41.4-5.8,61.6c2.8,12.7,7.6,24.9,13.5,36.5
		c-12.3,12.5-24.7,24.8-34.5,38.9c-17.6,25.5-20.5,68.4,18.9,73.3c21.1,2.6,40.2-9.6,56.1-22c4-3.1,7.9-6.4,11.7-9.8
		c7.2,9.8,14.7,19.3,22.7,28.3c7.3,8.2,18.9-2.2,14.5-11.2c-5.8-11.8-12.5-23.1-19.6-34.3c8.9-9.6,17-19.9,24.5-30.9
		C970.3,196.8,947.2,183.2,937.9,197.5z M881.5,146.8c-6.6-18.3-16.2-53.1,4.4-66.4c12.8-8.3,24.6-0.7,26.6,13.4
		c1.5,10.6-1.2,21.4-5.5,31.1c-5.3,12.1-12.7,22.7-21.2,32.6C884.3,154,882.8,150.5,881.5,146.8z M887.9,253.1
		c-8.8,7.2-18.9,15.7-30.6,17.2c-15.9,2.1-24.2-9.8-21.3-24.6c4-21.1,23.1-39,37-54.2c0.1-0.1,0.2-0.3,0.4-0.4
		c4.3,7.4,8.9,14.6,13.6,21.7c5.7,8.6,11.4,17.2,17.3,25.7C899,243.6,893.6,248.5,887.9,253.1z"/>
</g>
</svg>
